<!-- <svg class="forCdcr" id="fwt-profile-svg-cdcr" width="14" height="14" viewBox="0 0 20 20" fill="none" xmlns="http://www.w3.org/2000/svg" style="stroke:none;margin-top: -1px;"> -->
            <title id="fwt-profile-button-loggedout-title">Log in</title>
            <mask id="mask0" mask-type="alpha" maskUnits="userSpaceOnUse" x="4" y="1" width="12" height="18">
                <path d="M10 8C9.30777 8 8.63108 7.79473 8.05551 7.41015C7.47993 7.02556 7.03133 6.47894 6.76642 5.83939C6.50152 5.19985 6.4322 4.49612 6.56725 3.81719C6.7023 3.13825 7.03564 2.51461 7.52513 2.02513C8.01461 1.53564 8.63825 1.2023 9.31718 1.06725C9.99612 0.932205 10.6999 1.00152 11.3394 1.26642C11.9789 1.53133 12.5256 1.97993 12.9101 2.55551C13.2947 3.13108 13.5 3.80777 13.5 4.5C13.4974 5.42745 13.1278 6.31615 12.472 6.97196C11.8162 7.62777 10.9274 7.99736 10 8ZM10 2C9.50555 2 9.0222 2.14662 8.61108 2.42133C8.19995 2.69603 7.87952 3.08648 7.6903 3.54329C7.50108 4.00011 7.45157 4.50277 7.54804 4.98773C7.6445 5.47268 7.8826 5.91814 8.23223 6.26777C8.58187 6.6174 9.02732 6.8555 9.51228 6.95196C9.99723 7.04843 10.4999 6.99892 10.9567 6.8097C11.4135 6.62048 11.804 6.30005 12.0787 5.88893C12.3534 5.4778 12.5 4.99445 12.5 4.5C12.4974 3.83777 12.2331 3.20342 11.7649 2.73514C11.2966 2.26687 10.6622 2.00263 10 2Z" fill="#1B1C1D"></path>
                <path d="M15.5 19H4.5C4.36739 19 4.24021 18.9473 4.14645 18.8536C4.05268 18.7598 4 18.6326 4 18.5V13.45C4.00264 12.5358 4.36697 11.6598 5.0134 11.0134C5.65983 10.367 6.53581 10.0026 7.45 10H12.55C13.4642 10.0026 14.3402 10.367 14.9866 11.0134C15.633 11.6598 15.9974 12.5358 16 13.45V18.5C16 18.6326 15.9473 18.7598 15.8536 18.8536C15.7598 18.9473 15.6326 19 15.5 19ZM5 18H15V13.45C15 12.8002 14.7419 12.1771 14.2824 11.7176C13.8229 11.2581 13.1998 11 12.55 11H7.45C6.80022 11 6.17705 11.2581 5.71759 11.7176C5.25812 12.1771 5 12.8002 5 13.45V18Z" fill="#1B1C1D"></path>
            </mask>
            <g mask="url(#mask0)">
                <path d="M20 0H0V20H20V0Z" fill="#1B1C1D"></path>
            </g>
        </svg>